<mxfile host="65bd71144e">
    <diagram id="CJo-_Jv-YDpqMQjWS3eF" name="Page-1">
        <mxGraphModel dx="1146" dy="653" grid="1" gridSize="10" guides="1" tooltips="1" connect="1" arrows="1" fold="1" page="0" pageScale="1" pageWidth="827" pageHeight="1169" math="0" shadow="0">
            <root>
                <mxCell id="0"/>
                <mxCell id="1" parent="0"/>
                <mxCell id="88" value="" style="edgeStyle=none;rounded=0;jumpSize=5;html=1;startSize=5;endSize=6;" parent="1" source="3" target="87" edge="1">
                    <mxGeometry relative="1" as="geometry"/>
                </mxCell>
                <mxCell id="3" value="Voeding aansluiten" style="shape=process;whiteSpace=wrap;html=1;backgroundOutline=1;fillColor=#f5f5f5;fontColor=#333333;strokeColor=#666666;" parent="1" vertex="1">
                    <mxGeometry x="280.03999999999996" y="120" width="120" height="40" as="geometry"/>
                </mxCell>
                <mxCell id="22" value="" style="edgeStyle=none;html=1;" parent="1" source="6" target="21" edge="1">
                    <mxGeometry relative="1" as="geometry"/>
                </mxCell>
                <mxCell id="24" value="Welkomstbericht afgelopen" style="edgeLabel;html=1;align=center;verticalAlign=middle;resizable=0;points=[];" parent="22" vertex="1" connectable="0">
                    <mxGeometry x="0.1917" relative="1" as="geometry">
                        <mxPoint y="-7" as="offset"/>
                    </mxGeometry>
                </mxCell>
                <mxCell id="42" value="" style="edgeStyle=none;html=1;rounded=0;" parent="1" source="6" target="41" edge="1">
                    <mxGeometry relative="1" as="geometry">
                        <Array as="points">
                            <mxPoint x="540" y="540"/>
                        </Array>
                    </mxGeometry>
                </mxCell>
                <mxCell id="44" value="Drukknop &lt;br&gt;ingedrukt" style="edgeLabel;html=1;align=center;verticalAlign=middle;resizable=0;points=[];" parent="42" vertex="1" connectable="0">
                    <mxGeometry x="-0.2438" y="6" relative="1" as="geometry">
                        <mxPoint x="-3" y="6" as="offset"/>
                    </mxGeometry>
                </mxCell>
                <mxCell id="146" value="Telefoon&lt;br&gt;&amp;nbsp;afgelegd" style="edgeStyle=none;rounded=0;jumpSize=5;html=1;exitX=0;exitY=0.5;exitDx=0;exitDy=0;startSize=5;endSize=6;" parent="1" source="6" edge="1">
                    <mxGeometry relative="1" as="geometry">
                        <mxPoint x="80" y="540.1666666666667" as="targetPoint"/>
                    </mxGeometry>
                </mxCell>
                <mxCell id="6" value="Welkomstbericht afspelen" style="rounded=1;whiteSpace=wrap;html=1;fontSize=12;glass=0;strokeWidth=1;shadow=0;fillColor=#d5e8d4;strokeColor=#82b366;" parent="1" vertex="1">
                    <mxGeometry x="280.03999999999996" y="520" width="120" height="40" as="geometry"/>
                </mxCell>
                <mxCell id="26" value="Telefoon afgelegd&lt;br&gt;OF max tijd vertreken" style="edgeStyle=none;html=1;exitX=0.5;exitY=1;exitDx=0;exitDy=0;" parent="1" source="21" target="25" edge="1">
                    <mxGeometry relative="1" as="geometry">
                        <mxPoint x="340.04" y="800" as="sourcePoint"/>
                    </mxGeometry>
                </mxCell>
                <mxCell id="140" value="Telefoon opgenomen" style="edgeStyle=none;rounded=0;jumpSize=5;html=1;startSize=5;endSize=6;" parent="1" target="6" edge="1">
                    <mxGeometry relative="1" as="geometry">
                        <mxPoint x="340.03999999999996" y="440" as="sourcePoint"/>
                    </mxGeometry>
                </mxCell>
                <mxCell id="15" value="Laatst opgenomen bericht afspelen" style="rounded=1;whiteSpace=wrap;html=1;fontSize=12;glass=0;strokeWidth=1;shadow=0;fillColor=#dae8fc;strokeColor=#6c8ebf;" parent="1" vertex="1">
                    <mxGeometry x="480" y="760" width="120" height="40" as="geometry"/>
                </mxCell>
                <mxCell id="21" value="Biep toon (0.5s)&lt;br&gt;bericht opnemen" style="rounded=1;whiteSpace=wrap;html=1;fontSize=12;glass=0;strokeWidth=1;shadow=0;fillColor=#d5e8d4;strokeColor=#82b366;" parent="1" vertex="1">
                    <mxGeometry x="280.03999999999996" y="640" width="120" height="40" as="geometry"/>
                </mxCell>
                <mxCell id="28" value="" style="edgeStyle=none;html=1;" parent="1" source="25" target="27" edge="1">
                    <mxGeometry relative="1" as="geometry"/>
                </mxCell>
                <mxCell id="25" value="Bericht opslaan" style="rounded=1;whiteSpace=wrap;html=1;fontSize=12;glass=0;strokeWidth=1;shadow=0;fillColor=#d5e8d4;strokeColor=#82b366;" parent="1" vertex="1">
                    <mxGeometry x="280.03999999999996" y="760" width="120" height="40" as="geometry"/>
                </mxCell>
                <mxCell id="31" value="" style="edgeStyle=none;html=1;rounded=0;" parent="1" source="27" target="29" edge="1">
                    <mxGeometry relative="1" as="geometry">
                        <Array as="points">
                            <mxPoint x="180" y="900"/>
                        </Array>
                    </mxGeometry>
                </mxCell>
                <mxCell id="33" value="Ja" style="edgeLabel;html=1;align=center;verticalAlign=middle;resizable=0;points=[];" parent="31" vertex="1" connectable="0">
                    <mxGeometry x="-0.2803" y="1" relative="1" as="geometry">
                        <mxPoint x="-41" y="69" as="offset"/>
                    </mxGeometry>
                </mxCell>
                <mxCell id="95" value="Nee" style="edgeStyle=none;rounded=0;jumpSize=5;html=1;startSize=5;endSize=6;" parent="1" source="27" target="30" edge="1">
                    <mxGeometry relative="1" as="geometry"/>
                </mxCell>
                <mxCell id="27" value="Bericht te kort?" style="rhombus;whiteSpace=wrap;html=1;fillColor=#d5e8d4;strokeColor=#82b366;" parent="1" vertex="1">
                    <mxGeometry x="300.04" y="860" width="80" height="80" as="geometry"/>
                </mxCell>
                <mxCell id="57" style="edgeStyle=none;rounded=0;jumpSize=5;html=1;exitX=0.5;exitY=1;exitDx=0;exitDy=0;startSize=5;endSize=6;" parent="1" source="29" edge="1">
                    <mxGeometry relative="1" as="geometry">
                        <mxPoint x="180" y="1080" as="targetPoint"/>
                        <Array as="points"/>
                    </mxGeometry>
                </mxCell>
                <mxCell id="29" value="Verwijder bericht" style="rounded=1;whiteSpace=wrap;html=1;fontSize=12;glass=0;strokeWidth=1;shadow=0;fillColor=#d5e8d4;strokeColor=#82b366;" parent="1" vertex="1">
                    <mxGeometry x="119.99999999999997" y="1000" width="120" height="40" as="geometry"/>
                </mxCell>
                <mxCell id="94" style="edgeStyle=none;rounded=0;jumpSize=5;html=1;exitX=0.5;exitY=1;exitDx=0;exitDy=0;startSize=5;endSize=6;" parent="1" source="30" edge="1">
                    <mxGeometry relative="1" as="geometry">
                        <mxPoint x="340" y="1080" as="targetPoint"/>
                    </mxGeometry>
                </mxCell>
                <mxCell id="30" value="3 korte bieps" style="rounded=1;whiteSpace=wrap;html=1;fontSize=12;glass=0;strokeWidth=1;shadow=0;fillColor=#d5e8d4;strokeColor=#82b366;" parent="1" vertex="1">
                    <mxGeometry x="280.03999999999996" y="1000" width="120" height="40" as="geometry"/>
                </mxCell>
                <mxCell id="43" value="" style="edgeStyle=none;html=1;" parent="1" source="41" target="15" edge="1">
                    <mxGeometry relative="1" as="geometry"/>
                </mxCell>
                <mxCell id="45" value="Ja" style="edgeLabel;html=1;align=center;verticalAlign=middle;resizable=0;points=[];" parent="43" vertex="1" connectable="0">
                    <mxGeometry x="-0.2759" relative="1" as="geometry">
                        <mxPoint y="8" as="offset"/>
                    </mxGeometry>
                </mxCell>
                <mxCell id="54" value="Nee" style="edgeStyle=none;rounded=0;jumpSize=5;html=1;exitX=1;exitY=0.5;exitDx=0;exitDy=0;entryX=0.5;entryY=0;entryDx=0;entryDy=0;startSize=5;endSize=6;" parent="1" source="41" target="52" edge="1">
                    <mxGeometry x="0.7273" relative="1" as="geometry">
                        <Array as="points">
                            <mxPoint x="700" y="660"/>
                        </Array>
                        <mxPoint as="offset"/>
                    </mxGeometry>
                </mxCell>
                <mxCell id="41" value="Bericht aanwezig?" style="rhombus;whiteSpace=wrap;html=1;fillColor=#dae8fc;strokeColor=#6c8ebf;" parent="1" vertex="1">
                    <mxGeometry x="500" y="620" width="80" height="80" as="geometry"/>
                </mxCell>
                <mxCell id="55" style="edgeStyle=none;rounded=0;jumpSize=5;html=1;exitX=0.5;exitY=1;exitDx=0;exitDy=0;entryX=0;entryY=0.5;entryDx=0;entryDy=0;startSize=5;endSize=6;" parent="1" source="189" edge="1">
                    <mxGeometry relative="1" as="geometry">
                        <mxPoint x="280.0400000000001" y="420" as="targetPoint"/>
                        <Array as="points">
                            <mxPoint x="700" y="1080"/>
                            <mxPoint x="80" y="1080"/>
                            <mxPoint x="80" y="420"/>
                        </Array>
                    </mxGeometry>
                </mxCell>
                <mxCell id="52" value="Geen nieuwe berichten afspelen" style="rounded=1;whiteSpace=wrap;html=1;fontSize=12;glass=0;strokeWidth=1;shadow=0;fillColor=#dae8fc;strokeColor=#6c8ebf;" parent="1" vertex="1">
                    <mxGeometry x="640" y="760" width="120" height="40" as="geometry"/>
                </mxCell>
                <mxCell id="92" value="Nee" style="edgeStyle=none;rounded=0;jumpSize=5;html=1;startSize=5;endSize=6;" parent="1" source="87" target="91" edge="1">
                    <mxGeometry relative="1" as="geometry"/>
                </mxCell>
                <mxCell id="98" value="" style="edgeStyle=none;rounded=0;jumpSize=5;html=1;startSize=5;endSize=6;" parent="1" source="87" target="97" edge="1">
                    <mxGeometry relative="1" as="geometry"/>
                </mxCell>
                <mxCell id="99" value="Ja" style="edgeLabel;html=1;align=center;verticalAlign=middle;resizable=0;points=[];" parent="98" vertex="1" connectable="0">
                    <mxGeometry x="-0.4385" y="4" relative="1" as="geometry">
                        <mxPoint x="11" y="4" as="offset"/>
                    </mxGeometry>
                </mxCell>
                <mxCell id="87" value="Drukknop ingedrukt?" style="rhombus;whiteSpace=wrap;html=1;fillColor=#f5f5f5;strokeColor=#666666;fontColor=#333333;" parent="1" vertex="1">
                    <mxGeometry x="300.03999999999996" y="200" width="80" height="80" as="geometry"/>
                </mxCell>
                <mxCell id="93" value="" style="edgeStyle=none;rounded=0;jumpSize=5;html=1;startSize=5;endSize=6;" parent="1" source="91" edge="1">
                    <mxGeometry relative="1" as="geometry">
                        <mxPoint x="340.03999999999996" y="400" as="targetPoint"/>
                    </mxGeometry>
                </mxCell>
                <mxCell id="91" value="1 Lange biep (1s)" style="rounded=1;whiteSpace=wrap;html=1;fontSize=12;glass=0;strokeWidth=1;shadow=0;fillColor=#f5f5f5;strokeColor=#666666;fontColor=#333333;" parent="1" vertex="1">
                    <mxGeometry x="280.03999999999996" y="320" width="120" height="40" as="geometry"/>
                </mxCell>
                <mxCell id="97" value="Zie welkomstbericht &lt;br&gt;aanpassen" style="shape=singleArrow;whiteSpace=wrap;html=1;arrowWidth=0.4;arrowSize=0.4;fillColor=#ffe6cc;strokeColor=#d79b00;align=left;" parent="1" vertex="1">
                    <mxGeometry x="480" y="200" width="119.96" height="80" as="geometry"/>
                </mxCell>
                <mxCell id="102" value="Normale werking" style="text;strokeColor=#82b366;fillColor=#d5e8d4;html=1;fontSize=24;fontStyle=1;verticalAlign=middle;align=center;" parent="1" vertex="1">
                    <mxGeometry x="196" y="40" width="436" height="40" as="geometry"/>
                </mxCell>
                <mxCell id="103" value="Welkomstbericht aanpassen" style="text;strokeColor=#d79b00;fillColor=#ffe6cc;html=1;fontSize=24;fontStyle=1;verticalAlign=middle;align=center;" parent="1" vertex="1">
                    <mxGeometry x="196" y="1240" width="436" height="40" as="geometry"/>
                </mxCell>
                <mxCell id="104" value="" style="edgeStyle=none;rounded=0;jumpSize=5;html=1;startSize=5;endSize=6;" parent="1" source="105" target="136" edge="1">
                    <mxGeometry relative="1" as="geometry"/>
                </mxCell>
                <mxCell id="105" value="Voeding aansluiten" style="shape=process;whiteSpace=wrap;html=1;backgroundOutline=1;fillColor=#f5f5f5;fontColor=#333333;strokeColor=#666666;" parent="1" vertex="1">
                    <mxGeometry x="280.03999999999996" y="1320" width="120" height="40" as="geometry"/>
                </mxCell>
                <mxCell id="106" value="" style="edgeStyle=none;html=1;" parent="1" source="110" target="116" edge="1">
                    <mxGeometry relative="1" as="geometry"/>
                </mxCell>
                <mxCell id="107" value="Instructies afgelopen" style="edgeLabel;html=1;align=center;verticalAlign=middle;resizable=0;points=[];" parent="106" vertex="1" connectable="0">
                    <mxGeometry x="0.1917" relative="1" as="geometry">
                        <mxPoint y="-7" as="offset"/>
                    </mxGeometry>
                </mxCell>
                <mxCell id="108" value="" style="edgeStyle=none;html=1;" parent="1" source="110" target="130" edge="1">
                    <mxGeometry relative="1" as="geometry"/>
                </mxCell>
                <mxCell id="109" value="Drukknop &lt;br&gt;ingedrukt" style="edgeLabel;html=1;align=center;verticalAlign=middle;resizable=0;points=[];" parent="108" vertex="1" connectable="0">
                    <mxGeometry x="-0.2438" y="6" relative="1" as="geometry">
                        <mxPoint x="16" y="6" as="offset"/>
                    </mxGeometry>
                </mxCell>
                <mxCell id="110" value="Instructies&lt;br&gt;afspelen" style="rounded=1;whiteSpace=wrap;html=1;fontSize=12;glass=0;strokeWidth=1;shadow=0;fillColor=#ffe6cc;strokeColor=#d79b00;" parent="1" vertex="1">
                    <mxGeometry x="280.03999999999996" y="1720" width="120" height="40" as="geometry"/>
                </mxCell>
                <mxCell id="111" value="Drukknop ingedrukt" style="edgeStyle=none;html=1;exitX=0.5;exitY=1;exitDx=0;exitDy=0;" parent="1" source="116" target="118" edge="1">
                    <mxGeometry relative="1" as="geometry">
                        <mxPoint x="340.04" y="2000" as="sourcePoint"/>
                    </mxGeometry>
                </mxCell>
                <mxCell id="141" value="" style="edgeStyle=none;rounded=0;jumpSize=5;html=1;startSize=5;endSize=6;" parent="1" target="110" edge="1">
                    <mxGeometry relative="1" as="geometry">
                        <mxPoint x="340.03999999999996" y="1640" as="sourcePoint"/>
                    </mxGeometry>
                </mxCell>
                <mxCell id="142" value="Telefoon opgenomen" style="edgeLabel;html=1;align=center;verticalAlign=middle;resizable=0;points=[];" parent="141" vertex="1" connectable="0">
                    <mxGeometry x="0.265" y="4" relative="1" as="geometry">
                        <mxPoint x="-4" y="-10" as="offset"/>
                    </mxGeometry>
                </mxCell>
                <mxCell id="114" style="edgeStyle=none;rounded=0;jumpSize=5;html=1;exitX=0.5;exitY=1;exitDx=0;exitDy=0;startSize=5;endSize=6;" parent="1" source="165" edge="1">
                    <mxGeometry relative="1" as="geometry">
                        <mxPoint x="540" y="2320" as="targetPoint"/>
                    </mxGeometry>
                </mxCell>
                <mxCell id="169" value="Telefoon&lt;br&gt;afgelegd" style="edgeLabel;html=1;align=center;verticalAlign=middle;resizable=0;points=[];" parent="114" vertex="1" connectable="0">
                    <mxGeometry x="-0.2738" relative="1" as="geometry">
                        <mxPoint y="-76" as="offset"/>
                    </mxGeometry>
                </mxCell>
                <mxCell id="167" value="Bericht afgelopen" style="edgeStyle=none;rounded=0;jumpSize=5;html=1;startSize=5;endSize=6;fillColor=default;" parent="1" source="115" target="165" edge="1">
                    <mxGeometry relative="1" as="geometry"/>
                </mxCell>
                <mxCell id="171" style="edgeStyle=none;rounded=0;jumpSize=5;html=1;exitX=1;exitY=0.5;exitDx=0;exitDy=0;startSize=5;endSize=6;fillColor=default;" parent="1" source="115" edge="1">
                    <mxGeometry relative="1" as="geometry">
                        <mxPoint x="540" y="2080" as="targetPoint"/>
                        <Array as="points">
                            <mxPoint x="620" y="1860"/>
                            <mxPoint x="620" y="2080"/>
                        </Array>
                    </mxGeometry>
                </mxCell>
                <mxCell id="172" value="Telefoon &lt;br&gt;afgelegd" style="edgeLabel;html=1;align=center;verticalAlign=middle;resizable=0;points=[];" parent="171" vertex="1" connectable="0">
                    <mxGeometry x="0.27" y="1" relative="1" as="geometry">
                        <mxPoint y="-122" as="offset"/>
                    </mxGeometry>
                </mxCell>
                <mxCell id="115" value="Welkomstbericht afspelen" style="rounded=1;whiteSpace=wrap;html=1;fontSize=12;glass=0;strokeWidth=1;shadow=0;fillColor=#dae8fc;strokeColor=#6c8ebf;" parent="1" vertex="1">
                    <mxGeometry x="480" y="1840" width="120" height="40" as="geometry"/>
                </mxCell>
                <mxCell id="144" style="edgeStyle=none;rounded=0;jumpSize=5;html=1;exitX=0;exitY=0.5;exitDx=0;exitDy=0;startSize=5;endSize=6;" parent="1" source="110" edge="1">
                    <mxGeometry relative="1" as="geometry">
                        <mxPoint y="1740" as="targetPoint"/>
                    </mxGeometry>
                </mxCell>
                <mxCell id="145" value="Telefoon &lt;br&gt;afgelegd" style="edgeLabel;html=1;align=center;verticalAlign=middle;resizable=0;points=[];" parent="144" vertex="1" connectable="0">
                    <mxGeometry x="-0.2264" y="2" relative="1" as="geometry">
                        <mxPoint x="-7" y="-2" as="offset"/>
                    </mxGeometry>
                </mxCell>
                <mxCell id="150" style="edgeStyle=none;rounded=0;jumpSize=5;html=1;exitX=0;exitY=0.5;exitDx=0;exitDy=0;startSize=5;endSize=6;fillColor=default;" parent="1" source="116" edge="1">
                    <mxGeometry relative="1" as="geometry">
                        <mxPoint y="1860" as="targetPoint"/>
                    </mxGeometry>
                </mxCell>
                <mxCell id="151" value="Telefoon&lt;br&gt;&amp;nbsp;afgelegd" style="edgeLabel;html=1;align=center;verticalAlign=middle;resizable=0;points=[];" parent="150" vertex="1" connectable="0">
                    <mxGeometry x="-0.2051" y="-1" relative="1" as="geometry">
                        <mxPoint x="-4" y="1" as="offset"/>
                    </mxGeometry>
                </mxCell>
                <mxCell id="116" value="Biep toon &amp;amp;&lt;br&gt;bericht opnemen" style="rounded=1;whiteSpace=wrap;html=1;fontSize=12;glass=0;strokeWidth=1;shadow=0;fillColor=#ffe6cc;strokeColor=#d79b00;" parent="1" vertex="1">
                    <mxGeometry x="280.03999999999996" y="1840" width="120" height="40" as="geometry"/>
                </mxCell>
                <mxCell id="163" value="" style="edgeStyle=none;rounded=0;jumpSize=5;html=1;startSize=5;endSize=6;fillColor=default;" parent="1" source="118" target="126" edge="1">
                    <mxGeometry relative="1" as="geometry">
                        <Array as="points">
                            <mxPoint x="340" y="2030"/>
                        </Array>
                    </mxGeometry>
                </mxCell>
                <mxCell id="164" value="Bericht &lt;br&gt;lang genoeg" style="edgeLabel;html=1;align=center;verticalAlign=middle;resizable=0;points=[];" parent="163" vertex="1" connectable="0">
                    <mxGeometry x="-0.0118" y="1" relative="1" as="geometry">
                        <mxPoint as="offset"/>
                    </mxGeometry>
                </mxCell>
                <mxCell id="118" value="Opname opslaan" style="rounded=1;whiteSpace=wrap;html=1;fontSize=12;glass=0;strokeWidth=1;shadow=0;fillColor=#ffe6cc;strokeColor=#d79b00;" parent="1" vertex="1">
                    <mxGeometry x="280.03999999999996" y="1960" width="120" height="40" as="geometry"/>
                </mxCell>
                <mxCell id="119" value="Bericht &lt;br&gt;te kort" style="edgeStyle=none;html=1;rounded=0;exitX=0;exitY=0.5;exitDx=0;exitDy=0;" parent="1" source="118" target="124" edge="1">
                    <mxGeometry relative="1" as="geometry">
                        <Array as="points"/>
                    </mxGeometry>
                </mxCell>
                <mxCell id="123" value="Telefoon &lt;br&gt;afgelegd" style="edgeStyle=none;rounded=0;jumpSize=5;html=1;exitX=0;exitY=0.5;exitDx=0;exitDy=0;startSize=5;endSize=6;" parent="1" source="124" edge="1">
                    <mxGeometry relative="1" as="geometry">
                        <mxPoint y="1980" as="targetPoint"/>
                        <Array as="points"/>
                        <mxPoint as="offset"/>
                    </mxGeometry>
                </mxCell>
                <mxCell id="124" value="Bericht verwijderen &amp;amp; Melding afspelen" style="rounded=1;whiteSpace=wrap;html=1;fontSize=12;glass=0;strokeWidth=1;shadow=0;fillColor=#ffe6cc;strokeColor=#d79b00;" parent="1" vertex="1">
                    <mxGeometry x="79.99999999999997" y="1960" width="120" height="40" as="geometry"/>
                </mxCell>
                <mxCell id="125" style="edgeStyle=none;rounded=0;jumpSize=5;html=1;exitX=0.5;exitY=1;exitDx=0;exitDy=0;startSize=5;endSize=6;entryX=0.5;entryY=0;entryDx=0;entryDy=0;" parent="1" source="126" target="154" edge="1">
                    <mxGeometry relative="1" as="geometry">
                        <mxPoint x="340" y="2160" as="targetPoint"/>
                    </mxGeometry>
                </mxCell>
                <mxCell id="155" value="Drukknop 2s &lt;br&gt;ingedrukt" style="edgeLabel;html=1;align=center;verticalAlign=middle;resizable=0;points=[];" parent="125" vertex="1" connectable="0">
                    <mxGeometry x="-0.1983" y="1" relative="1" as="geometry">
                        <mxPoint x="-1" y="8" as="offset"/>
                    </mxGeometry>
                </mxCell>
                <mxCell id="152" style="edgeStyle=none;rounded=0;jumpSize=5;html=1;exitX=0;exitY=0.5;exitDx=0;exitDy=0;startSize=5;endSize=6;fillColor=default;" parent="1" source="126" edge="1">
                    <mxGeometry relative="1" as="geometry">
                        <mxPoint y="2100" as="targetPoint"/>
                    </mxGeometry>
                </mxCell>
                <mxCell id="153" value="Telefoon afgelegd OF&lt;br&gt;Te lang gewacht" style="edgeLabel;html=1;align=center;verticalAlign=middle;resizable=0;points=[];" parent="152" vertex="1" connectable="0">
                    <mxGeometry x="-0.1623" y="2" relative="1" as="geometry">
                        <mxPoint as="offset"/>
                    </mxGeometry>
                </mxCell>
                <mxCell id="126" value="Opname afspelen&lt;br&gt;&amp;amp;&amp;nbsp; Verdere instructies" style="rounded=1;whiteSpace=wrap;html=1;fontSize=12;glass=0;strokeWidth=1;shadow=0;fillColor=#ffe6cc;strokeColor=#d79b00;" parent="1" vertex="1">
                    <mxGeometry x="280.03999999999996" y="2080" width="120" height="40" as="geometry"/>
                </mxCell>
                <mxCell id="127" value="" style="edgeStyle=none;html=1;" parent="1" source="130" target="115" edge="1">
                    <mxGeometry relative="1" as="geometry"/>
                </mxCell>
                <mxCell id="128" value="Ja" style="edgeLabel;html=1;align=center;verticalAlign=middle;resizable=0;points=[];" parent="127" vertex="1" connectable="0">
                    <mxGeometry x="-0.2759" relative="1" as="geometry">
                        <mxPoint y="8" as="offset"/>
                    </mxGeometry>
                </mxCell>
                <mxCell id="129" value="Nee" style="edgeStyle=none;rounded=0;jumpSize=5;html=1;exitX=1;exitY=0.5;exitDx=0;exitDy=0;entryX=0.5;entryY=0;entryDx=0;entryDy=0;startSize=5;endSize=6;" parent="1" source="130" target="132" edge="1">
                    <mxGeometry x="0.7273" relative="1" as="geometry">
                        <Array as="points">
                            <mxPoint x="700" y="1740"/>
                        </Array>
                        <mxPoint as="offset"/>
                    </mxGeometry>
                </mxCell>
                <mxCell id="130" value="Bericht aanwezig?" style="rhombus;whiteSpace=wrap;html=1;fillColor=#dae8fc;strokeColor=#6c8ebf;" parent="1" vertex="1">
                    <mxGeometry x="500" y="1700" width="80" height="80" as="geometry"/>
                </mxCell>
                <mxCell id="131" style="edgeStyle=none;rounded=0;jumpSize=5;html=1;exitX=0.5;exitY=1;exitDx=0;exitDy=0;entryX=0;entryY=0.5;entryDx=0;entryDy=0;startSize=5;endSize=6;" parent="1" source="166" edge="1">
                    <mxGeometry relative="1" as="geometry">
                        <Array as="points">
                            <mxPoint x="700" y="2320"/>
                            <mxPoint y="2320"/>
                            <mxPoint y="1620"/>
                        </Array>
                        <mxPoint x="280.0400000000001" y="1620" as="targetPoint"/>
                    </mxGeometry>
                </mxCell>
                <mxCell id="170" value="Telefoon&lt;br&gt;afgelegd" style="edgeLabel;html=1;align=center;verticalAlign=middle;resizable=0;points=[];" parent="131" vertex="1" connectable="0">
                    <mxGeometry x="-0.8778" y="-3" relative="1" as="geometry">
                        <mxPoint x="3" y="-82" as="offset"/>
                    </mxGeometry>
                </mxCell>
                <mxCell id="183" style="edgeStyle=none;rounded=0;jumpSize=5;html=1;exitX=1;exitY=0.5;exitDx=0;exitDy=0;startSize=5;endSize=6;fillColor=default;" parent="131" source="52" edge="1">
                    <mxGeometry relative="1" as="geometry">
                        <mxPoint x="700" y="1000" as="targetPoint"/>
                        <mxPoint x="1040" y="860" as="sourcePoint"/>
                        <Array as="points">
                            <mxPoint x="780" y="780"/>
                            <mxPoint x="780" y="1000"/>
                        </Array>
                    </mxGeometry>
                </mxCell>
                <mxCell id="184" value="Telefoon&lt;br&gt;afgelegd" style="edgeLabel;html=1;align=center;verticalAlign=middle;resizable=0;points=[];" parent="183" vertex="1" connectable="0">
                    <mxGeometry x="0.2625" y="-1" relative="1" as="geometry">
                        <mxPoint y="-122" as="offset"/>
                    </mxGeometry>
                </mxCell>
                <mxCell id="168" value="Bericht afgelopen" style="edgeStyle=none;rounded=0;jumpSize=5;html=1;startSize=5;endSize=6;fillColor=default;" parent="1" source="132" target="166" edge="1">
                    <mxGeometry relative="1" as="geometry"/>
                </mxCell>
                <mxCell id="173" style="edgeStyle=none;rounded=0;jumpSize=5;html=1;exitX=1;exitY=0.5;exitDx=0;exitDy=0;startSize=5;endSize=6;fillColor=default;" parent="1" source="132" edge="1">
                    <mxGeometry relative="1" as="geometry">
                        <mxPoint x="700" y="2080" as="targetPoint"/>
                        <Array as="points">
                            <mxPoint x="780" y="1860"/>
                            <mxPoint x="780" y="2080"/>
                        </Array>
                    </mxGeometry>
                </mxCell>
                <mxCell id="174" value="Telefoon&lt;br&gt;afgelegd" style="edgeLabel;html=1;align=center;verticalAlign=middle;resizable=0;points=[];" parent="173" vertex="1" connectable="0">
                    <mxGeometry x="0.2625" y="-1" relative="1" as="geometry">
                        <mxPoint y="-122" as="offset"/>
                    </mxGeometry>
                </mxCell>
                <mxCell id="132" value="Standaard welkomst bericht afspelen" style="rounded=1;whiteSpace=wrap;html=1;fontSize=12;glass=0;strokeWidth=1;shadow=0;fillColor=#dae8fc;strokeColor=#6c8ebf;" parent="1" vertex="1">
                    <mxGeometry x="640" y="1840" width="120" height="40" as="geometry"/>
                </mxCell>
                <mxCell id="133" value="Ja" style="edgeStyle=none;rounded=0;jumpSize=5;html=1;startSize=5;endSize=6;" parent="1" source="136" target="138" edge="1">
                    <mxGeometry relative="1" as="geometry">
                        <mxPoint as="offset"/>
                    </mxGeometry>
                </mxCell>
                <mxCell id="134" value="" style="edgeStyle=none;rounded=0;jumpSize=5;html=1;startSize=5;endSize=6;entryX=0;entryY=0.5;entryDx=0;entryDy=0;entryPerimeter=0;" parent="1" source="136" target="158" edge="1">
                    <mxGeometry relative="1" as="geometry">
                        <mxPoint x="460.03999999999996" y="1440" as="targetPoint"/>
                    </mxGeometry>
                </mxCell>
                <mxCell id="135" value="Nee" style="edgeLabel;html=1;align=center;verticalAlign=middle;resizable=0;points=[];" parent="134" vertex="1" connectable="0">
                    <mxGeometry x="-0.4385" y="4" relative="1" as="geometry">
                        <mxPoint x="11" y="4" as="offset"/>
                    </mxGeometry>
                </mxCell>
                <mxCell id="136" value="Drukknop ingedrukt?" style="rhombus;whiteSpace=wrap;html=1;fillColor=#f5f5f5;strokeColor=#666666;fontColor=#333333;" parent="1" vertex="1">
                    <mxGeometry x="300.03999999999996" y="1400" width="80" height="80" as="geometry"/>
                </mxCell>
                <mxCell id="137" value="" style="edgeStyle=none;rounded=0;jumpSize=5;html=1;startSize=5;endSize=6;" parent="1" source="138" edge="1">
                    <mxGeometry relative="1" as="geometry">
                        <mxPoint x="340.03999999999996" y="1600" as="targetPoint"/>
                    </mxGeometry>
                </mxCell>
                <mxCell id="138" value="3 korte bieps" style="rounded=1;whiteSpace=wrap;html=1;fontSize=12;glass=0;strokeWidth=1;shadow=0;fillColor=#f5f5f5;strokeColor=#666666;fontColor=#333333;" parent="1" vertex="1">
                    <mxGeometry x="280.03999999999996" y="1520" width="120" height="40" as="geometry"/>
                </mxCell>
                <mxCell id="156" style="edgeStyle=none;rounded=0;jumpSize=5;html=1;exitX=0.5;exitY=1;exitDx=0;exitDy=0;startSize=5;endSize=6;fillColor=default;" parent="1" source="154" edge="1">
                    <mxGeometry relative="1" as="geometry">
                        <mxPoint x="340" y="2320" as="targetPoint"/>
                    </mxGeometry>
                </mxCell>
                <mxCell id="157" value="Telefoon afgelegd" style="edgeLabel;html=1;align=center;verticalAlign=middle;resizable=0;points=[];" parent="156" vertex="1" connectable="0">
                    <mxGeometry x="0.3" relative="1" as="geometry">
                        <mxPoint y="-12" as="offset"/>
                    </mxGeometry>
                </mxCell>
                <mxCell id="154" value="Welkomstbericht opgeslagen &amp;amp; &lt;br&gt;3 korte bieps" style="rounded=1;whiteSpace=wrap;html=1;fontSize=12;glass=0;strokeWidth=1;shadow=0;fillColor=#ffe6cc;strokeColor=#d79b00;" parent="1" vertex="1">
                    <mxGeometry x="280.03999999999996" y="2200" width="120" height="40" as="geometry"/>
                </mxCell>
                <mxCell id="158" value="Zie normale werking" style="shape=singleArrow;whiteSpace=wrap;html=1;arrowWidth=0.4;arrowSize=0.4;fillColor=#d5e8d4;strokeColor=#82b366;align=left;" parent="1" vertex="1">
                    <mxGeometry x="480" y="1400" width="119.96" height="80" as="geometry"/>
                </mxCell>
                <mxCell id="176" value="" style="edgeStyle=none;rounded=0;jumpSize=5;html=1;startSize=5;endSize=6;fillColor=default;" parent="1" source="160" target="175" edge="1">
                    <mxGeometry relative="1" as="geometry"/>
                </mxCell>
                <mxCell id="177" value="5s drukknop&lt;br&gt;&amp;nbsp;ingedrukt" style="edgeLabel;html=1;align=center;verticalAlign=middle;resizable=0;points=[];" parent="176" vertex="1" connectable="0">
                    <mxGeometry x="0.4593" relative="1" as="geometry">
                        <mxPoint x="-19" as="offset"/>
                    </mxGeometry>
                </mxCell>
                <mxCell id="160" value="Wachten" style="shape=process;whiteSpace=wrap;html=1;backgroundOutline=1;fillColor=#ffe6cc;strokeColor=#d79b00;" parent="1" vertex="1">
                    <mxGeometry x="280.03999999999996" y="1600" width="120" height="40" as="geometry"/>
                </mxCell>
                <mxCell id="161" value="Wachten" style="shape=process;whiteSpace=wrap;html=1;backgroundOutline=1;fillColor=#d5e8d4;strokeColor=#82b366;" parent="1" vertex="1">
                    <mxGeometry x="280.03999999999996" y="400" width="120" height="40" as="geometry"/>
                </mxCell>
                <mxCell id="165" value="3 korte bieps" style="rounded=1;whiteSpace=wrap;html=1;fontSize=12;glass=0;strokeWidth=1;shadow=0;fillColor=#dae8fc;strokeColor=#6c8ebf;" parent="1" vertex="1">
                    <mxGeometry x="480" y="1960" width="120" height="40" as="geometry"/>
                </mxCell>
                <mxCell id="166" value="3 korte bieps" style="rounded=1;whiteSpace=wrap;html=1;fontSize=12;glass=0;strokeWidth=1;shadow=0;fillColor=#dae8fc;strokeColor=#6c8ebf;" parent="1" vertex="1">
                    <mxGeometry x="640" y="1960" width="120" height="40" as="geometry"/>
                </mxCell>
                <mxCell id="175" value="Media Transfer activeren" style="shape=hexagon;perimeter=hexagonPerimeter2;whiteSpace=wrap;html=1;fixedSize=1;fillColor=#f8cecc;strokeColor=#b85450;" parent="1" vertex="1">
                    <mxGeometry x="489.96" y="1600" width="100.04" height="40" as="geometry"/>
                </mxCell>
                <mxCell id="179" style="edgeStyle=none;rounded=0;jumpSize=5;html=1;exitX=1;exitY=0.5;exitDx=0;exitDy=0;startSize=5;endSize=6;fillColor=default;" parent="1" source="15" edge="1">
                    <mxGeometry relative="1" as="geometry">
                        <mxPoint x="540" y="1000" as="targetPoint"/>
                        <Array as="points">
                            <mxPoint x="620" y="780"/>
                            <mxPoint x="620" y="1000"/>
                        </Array>
                    </mxGeometry>
                </mxCell>
                <mxCell id="180" value="Telefoon &lt;br&gt;afgelegd" style="edgeLabel;html=1;align=center;verticalAlign=middle;resizable=0;points=[];" parent="179" vertex="1" connectable="0">
                    <mxGeometry x="0.27" y="1" relative="1" as="geometry">
                        <mxPoint y="-122" as="offset"/>
                    </mxGeometry>
                </mxCell>
                <mxCell id="182" value="Bericht afgelopen" style="edgeStyle=none;rounded=0;jumpSize=5;html=1;startSize=5;endSize=6;fillColor=default;entryX=0.5;entryY=0;entryDx=0;entryDy=0;" parent="1" target="189" edge="1">
                    <mxGeometry relative="1" as="geometry">
                        <mxPoint x="700" y="800" as="sourcePoint"/>
                    </mxGeometry>
                </mxCell>
                <mxCell id="191" style="edgeStyle=none;rounded=0;jumpSize=5;html=1;exitX=0.5;exitY=1;exitDx=0;exitDy=0;startSize=5;endSize=6;fillColor=default;" parent="1" source="188" edge="1">
                    <mxGeometry relative="1" as="geometry">
                        <mxPoint x="540" y="1080" as="targetPoint"/>
                    </mxGeometry>
                </mxCell>
                <mxCell id="188" value="3 korte bieps" style="rounded=1;whiteSpace=wrap;html=1;fontSize=12;glass=0;strokeWidth=1;shadow=0;fillColor=#dae8fc;strokeColor=#6c8ebf;" parent="1" vertex="1">
                    <mxGeometry x="480" y="880" width="120" height="40" as="geometry"/>
                </mxCell>
                <mxCell id="189" value="3 korte bieps" style="rounded=1;whiteSpace=wrap;html=1;fontSize=12;glass=0;strokeWidth=1;shadow=0;fillColor=#dae8fc;strokeColor=#6c8ebf;" parent="1" vertex="1">
                    <mxGeometry x="640" y="880" width="120" height="40" as="geometry"/>
                </mxCell>
                <mxCell id="178" value="Bericht afgelopen" style="edgeStyle=none;rounded=0;jumpSize=5;html=1;startSize=5;endSize=6;fillColor=default;exitX=0.5;exitY=1;exitDx=0;exitDy=0;entryX=0.5;entryY=0;entryDx=0;entryDy=0;" parent="1" source="15" target="188" edge="1">
                    <mxGeometry relative="1" as="geometry">
                        <mxPoint as="offset"/>
                    </mxGeometry>
                </mxCell>
            </root>
        </mxGraphModel>
    </diagram>
</mxfile>